<svg width="25" height="25" viewBox="0 0 25 25" fill="none" xmlns="http://www.w3.org/2000/svg">
<g clip-path="url(#clip0)">
<path d="M13.4755 19.4448L24.6006 8.31944C24.8581 8.06212 25 7.71863 25 7.35237C25 6.98611 24.8581 6.64262 24.6006 6.38531L23.7815 5.566C23.2478 5.03288 22.3803 5.03288 21.8474 5.566L12.5052 14.9082L3.15262 5.55564C2.8951 5.29832 2.55181 5.15625 2.18575 5.15625C1.81929 5.15625 1.476 5.29832 1.21828 5.55564L0.399387 6.37494C0.141869 6.63246 -7.95328e-08 6.97575 -9.55424e-08 7.342C-1.11552e-07 7.70826 0.141868 8.05175 0.399387 8.30907L11.5347 19.4448C11.793 19.7027 12.1379 19.8443 12.5046 19.8435C12.8727 19.8443 13.2174 19.7027 13.4755 19.4448Z" fill="#222222"/>
</g>
<defs>
<clipPath id="clip0">
<rect width="25" height="25" fill="white" transform="translate(25) rotate(90)"/>
</clipPath>
</defs>
</svg>
