<svg width="32" height="30" viewBox="0 0 32 30" fill="none" xmlns="http://www.w3.org/2000/svg">
<g clip-path="url(#clip0)">
<path d="M16.2919 30.0001C16.1861 30.0001 16.0803 30.0001 15.9738 29.9996C13.469 30.0053 11.1547 29.9456 8.90393 29.8169C6.84044 29.6991 4.95687 29.0296 3.45655 27.8811C2.00888 26.7728 1.02029 25.2743 0.518311 23.4277C0.0814281 21.82 0.0582674 20.2419 0.0360819 18.7155C0.0199913 17.6203 0.00341315 16.3225 0 15.0028C0.00341315 13.6776 0.0199913 12.3798 0.0360819 11.2846C0.0582674 9.75842 0.0814281 8.18028 0.518311 6.57238C1.02029 4.72576 2.00888 3.22727 3.45655 2.11903C4.95687 0.970497 6.84044 0.301018 8.90418 0.183143C11.1549 0.0547407 13.4698 -0.00522638 15.9799 0.000495671C18.4854 -0.00453973 20.799 0.0547407 23.0497 0.183143C25.1132 0.301018 26.9968 0.970497 28.4971 2.11903C29.945 3.22727 30.9334 4.72576 31.4354 6.57238C31.8722 8.18005 31.8954 9.75842 31.9176 11.2846C31.9337 12.3798 31.9505 13.6776 31.9537 14.9973C31.9505 16.3225 31.9337 17.6203 31.9176 18.7155C31.9083 19.3628 31.3388 19.88 30.6525 19.8713C29.9631 19.8624 29.4121 19.3305 29.4214 18.6834C29.4372 17.5947 29.454 16.3054 29.4572 14.9973C29.454 13.6947 29.4372 12.4054 29.4214 11.3166C29.4011 9.92711 29.3801 8.49019 29.0164 7.15191C28.6495 5.80197 27.9439 4.71981 26.9195 3.93543C25.8115 3.08697 24.4584 2.61158 22.8981 2.52255C20.7003 2.39712 18.4378 2.33921 15.9799 2.34402C13.5161 2.33852 11.2534 2.39712 9.05557 2.52255C7.49528 2.61158 6.14245 3.08697 5.03415 3.93521C4.00972 4.71958 3.30417 5.80174 2.93726 7.15191C2.57351 8.49019 2.55255 9.92711 2.53231 11.3166C2.51647 12.4054 2.49989 13.6947 2.49648 15.0028C2.49989 16.3054 2.51647 17.5947 2.53231 18.6834C2.55255 20.073 2.57351 21.5099 2.93726 22.8482C3.30417 24.1981 4.00972 25.2803 5.03415 26.0647C6.14245 26.9131 7.49528 27.3885 9.05557 27.4775C11.2534 27.603 13.5166 27.6616 15.974 27.6558C18.4381 27.6613 20.7003 27.603 22.8981 27.4775C24.4584 27.3885 25.8112 26.9131 26.9195 26.0647C27.6575 25.4995 28.2341 24.7745 28.6332 23.9093C28.9072 23.3156 29.642 23.0425 30.2746 23.2998C30.9073 23.557 31.1979 24.2469 30.9241 24.8408C30.3646 26.0537 29.5481 27.0765 28.4971 27.8811C26.9968 29.0298 25.1132 29.6991 23.0497 29.8169C20.8943 29.9401 18.6802 30.0001 16.2919 30.0001ZM23.7158 15C23.7158 10.9614 20.2161 7.67582 15.9143 7.67582C11.6128 7.67582 8.11281 10.9614 8.11281 15C8.11281 19.0387 11.6128 22.3243 15.9143 22.3243C20.2161 22.3243 23.7158 19.0387 23.7158 15ZM21.2193 15C21.2193 17.7462 18.8396 19.9805 15.9143 19.9805C12.9892 19.9805 10.6093 17.7462 10.6093 15C10.6093 12.2539 12.9892 10.0196 15.9143 10.0196C18.8396 10.0196 21.2193 12.2539 21.2193 15ZM24.5896 5.33207C23.5556 5.33207 22.7172 6.11897 22.7172 7.08989C22.7172 8.0608 23.5556 8.8477 24.5896 8.8477C25.6237 8.8477 26.4619 8.0608 26.4619 7.08989C26.4619 6.11897 25.6237 5.33207 24.5896 5.33207Z" fill="#10100F"/>
</g>
<defs>
<clipPath id="clip0">
<rect width="31.9549" height="30" fill="white"/>
</clipPath>
</defs>
</svg>
